<?xml version="1.0" encoding="UTF-8"?>
<svg width="14px" height="13px" viewBox="0 0 14 13" version="1.1" xmlns="http://www.w3.org/2000/svg" xmlns:xlink="http://www.w3.org/1999/xlink">
    <title>icon-heart-filled</title>
    <g id="Design" stroke="none" stroke-width="1" fill="none" fill-rule="evenodd">
        <g id="icon-heart-filled" transform="translate(0, 0.5)" fill="#000000" fill-rule="nonzero">
            <path d="M7.00026291,12 C7.12786228,12 7.2417903,11.9598214 7.34204695,11.8794643 C7.6428169,11.6116071 8.46765571,10.875 9.81656338,9.66964286 C11.2566135,8.38392857 12.1498091,7.58482143 12.4961502,7.27232143 C12.9700908,6.88839286 13.3392175,6.41964286 13.6035305,5.86607143 C13.8678435,5.3125 14,4.72321429 14,4.09821429 C14,3.52678571 13.8906291,2.98214286 13.6718873,2.46428571 C13.4622598,1.96428571 13.1614898,1.52232143 12.7695775,1.13839286 C12.0039812,0.379464286 11.088,0 10.0216338,0 C9.43832238,0 8.88463224,0.125 8.36056338,0.375 C7.83649452,0.625 7.38306103,0.977678571 7.00026291,1.43303571 C6.61746479,0.977678571 6.1640313,0.625 5.63996244,0.375 C5.11589358,0.125 4.56220344,0 3.97889202,0 C2.91252582,0 1.9965446,0.383928571 1.23094836,1.15178571 C0.839035994,1.53571429 0.538266041,1.97767857 0.328638498,2.47767857 C0.100782473,3.00446429 -0.00858841941,3.54910714 0.000525821596,4.11160714 C0.0096400626,4.72767857 0.141796557,5.31026786 0.396995305,5.859375 C0.652194053,6.40848214 1.01220657,6.875 1.47703286,7.25892857 C1.52260407,7.29464286 1.56361815,7.33035714 1.60007512,7.36607143 C1.72767449,7.47321429 2.24262911,7.92857143 3.14493897,8.73214286 C5.0407011,10.4375 6.21188106,11.4866071 6.65847887,11.8794643 C6.75873552,11.9598214 6.87266354,12 7.00026291,12 Z" id="icon"></path>
        </g>
    </g>
</svg>