<?xml version="1.0" encoding="UTF-8"?>
<svg width="16px" height="14px" viewBox="0 0 16 14" version="1.1" xmlns="http://www.w3.org/2000/svg" xmlns:xlink="http://www.w3.org/1999/xlink">
    <title>icon-engine</title>
    <g id="Design" stroke="none" stroke-width="1" fill="none" fill-rule="evenodd" stroke-linecap="round" stroke-linejoin="round">
        <g id="icon-engine" transform="translate(0.4702, 0.9877)" stroke="#000000" stroke-width="0.84375">
            <path d="M4.04628672,4.61985366 L3.59397616,4.61985366 C2.97265581,4.61985366 2.46897616,5.12353331 2.46897616,5.74485366 L2.46897616,8.31076209 C2.46897616,8.93208243 2.97265581,9.43576209 3.59397616,9.43576209 L4.04628672,9.43576209 L4.04628672,9.43576209 L5.84435381,11.6890408 C8.74286302,11.6890408 10.1921176,11.6890408 10.1921176,11.6890408 C10.1921176,11.6890408 11.0905155,10.9379479 12.8873111,9.43576209 L12.8873111,7.89209716 L13.5988475,7.89209716 C13.7541776,7.89209716 13.8800975,8.01801707 13.8800975,8.17334716 L13.8800975,9.15451209 C13.8800975,9.30984217 14.0060174,9.43576209 14.1613475,9.43576209 L14.7484294,9.43576209 C14.9037595,9.43576209 15.0296794,9.30984217 15.0296794,9.15451209 L15.0296794,4.90110366 C15.0296794,4.74577357 14.9037595,4.61985366 14.7484294,4.61985366 L14.1613475,4.61985366 C14.0060174,4.61985366 13.8800975,4.74577357 13.8800975,4.90110366 L13.8800975,5.73101775 C13.8800975,5.88634784 13.7541776,6.01226775 13.5988475,6.01226775 L12.8873111,6.01226775 L12.8873111,6.01226775 L12.8873111,4.4734265 C12.8873111,3.54144599 12.1317916,2.7859265 11.1998111,2.7859265 L10.1921176,2.7859265 L10.1921176,2.7859265 L5.84435381,2.7859265 L4.04628672,4.61985366 Z" id="Path"></path>
            <path d="M2.18863351,6.62091033 L1.24734061,6.62091033 C1.24734061,5.38662252 1.24734061,4.76947862 1.24734061,4.76947862 C1.24734061,4.76947862 0.831560407,4.76947862 0,4.76947862 L0,9.79415426 L1.24734061,9.79415426 L1.24734061,7.88504433 L2.18863351,7.88504433" id="Path-2"></path>
            <path d="M9.72613363,0.545910449 L8.78484073,0.545910449 C8.78484073,-0.463377097 8.78484073,-0.96802087 8.78484073,-0.96802087 C8.78484073,-0.96802087 8.29406053,-0.96802087 7.31250012,-0.96802087 L7.31250012,3.38165438 L8.78484073,3.38165438 L8.78484073,1.81004445 L9.72613363,1.81004445" id="Path-2" transform="translate(8.5193, 1.2068) rotate(90) translate(-8.5193, -1.2068)"></path>
        </g>
    </g>
</svg>